<svg xmlns="http://www.w3.org/2000/svg" xmlns:v="https://vecta.io/nano" width="1832" height="1832"><defs><clipPath id="A"><rect width="1832" height="1832" rx="180"/></clipPath></defs><g fill-rule="evenodd"><path fill="#fff" d="M150 1564V90H1683V1564"/><path fill="#279923" d="m557 989-22 1-6 5-5 4v81l6 5 6 6h137l6-11c15-27 26-42 53-69 19-20 21-21 17-22H557m531 0c-12 0-13-1 4 14 28 25 44 46 61 78l5 10h139l5-6 6-6v-39c-1-45-1-44-10-49l-5-2-98-1-107 1"/><path fill="#fcba00" d="m1296 298-26 1h32a762 762 0 0 0-6-1m237 532-1 86v58l1-75a6360 6360 0 0 0 0-69M530 863l-6 7v36c0 42 0 44 6 50l5 5h271l10-4c11-4 36-12 48-14l52-1h46l12 3c16 4 33 9 44 14l8 3h78c229 0 205 7 204-65v-30l-3-3c-7-6-30-7-463-7H536l-6 6m75 228-69 1h68a945 945 0 0 0 1-1m539 316c-1 2-1 2 1 1 2-2 13-2 195-2l193-1h-387l-2 2m-607 40-184 1h184a6446 6446 0 0 0 0-1m653 1"/><path fill="#0369d3" d="M578 697c-59 1-54-6-54 75v48l5 4 5 5h765l4-5 5-5V710l-6-7-6-6-338-1-380 1m307 274c-183 17-267 246-143 386 144 164 428 45 408-171a234 234 0 0 0-265-215m3 52a171 171 0 0 0-91 291c138 138 356-25 269-202l-6-13 4-6c21-33-5-65-37-46-8 5-6 5-26-5-36-18-76-24-113-19m143 44c-19 13-113 88-126 99-26 24-13 62 22 62 21 0 20 0 71-71 55-80 59-87 46-93-5-3-6-3-13 3"/><path fill="#e12725" d="M0 0V1838H1838V0M907 168c-21 2-20 1-127 75-96 67-241 163-424 284C146 666 159 656 157 672c-4 27 12 48 36 47 12 0 23-7 242-151L853 286c45-31 57-39 63-39 7 0 16 6 94 61a23981 23981 0 00543 363c55 37 77 49 87 49 36-3 49-48 20-70A7578 7578 0 001392 474l-18-12V384l-1-78-2-2c-7-6-5-5-60-5-69 0-75 1-86 10-5 5-5 5-6 27s0 21-15 12L1005 212c-26-19-57-38-67-41a87 87 0 00-31-3M803 586c-99 2-317 24-372 38-38 9-74 44-86 85v567l2 13c15 28 41 49 68 52 18 2 95 5 203 8 76 2 76 2 78 4a270 270 0 00439 0h19l102-6c125-3 162-5 170-8 26-8 46-26 59-52l4-9V714l-4-8c-19-49-51-76-99-86A3118 3118 0 00803 586M271 725l-9 7-7 7v690l1 4c9 15 7 14 64 15H722l-18-21-18-21H296V734l-4-4c-6-6-13-7-21-5m1273 0-7 5-4 5v671H1146l-17 20-18 22c-1 2 426 1 442-1 10-1 14-3 18-10l3-4 1-23c3-85 0-670-4-675-7-9-16-13-27-10" clip-path="url(#A)"/></g></svg>